<svg width="207" height="346" viewBox="0 0 207 346" fill="none" xmlns="http://www.w3.org/2000/svg">
<path d="M87.6367 57.1091C88.6007 60.2271 89.9241 63.4217 90.5771 64.2087C92.2087 66.1777 82.0539 86.039 56.6094 130.64C45.6714 149.813 34.6397 169.646 32.0947 174.713C9.95588 218.795 6.36687 252.09 20.5068 282.223C28.7488 299.788 43.7889 315.259 61.0898 323.972C67.0958 326.997 80.7308 331.397 85.5898 331.878L89.0898 332.223L89.1826 321.223C89.2686 311.085 89.0916 310.002 86.9326 307.396C84.0468 303.914 83.9831 301.765 86.6631 298.358C89.2121 295.117 93.2681 294.896 96.9551 297.797C100.434 300.533 100.492 304.983 97.0898 308.135C94.699 310.351 94.5898 310.962 94.5898 322.089V333.723H105.59V271.163L94.5146 257.264C88.4227 249.619 82.0999 241.417 80.4619 239.037C77.9491 235.385 77.1905 234.867 75.6025 235.717C72.3824 237.439 64.6135 236.9 61.0645 234.708C53.3665 229.95 52.4013 217.72 59.2383 211.547C60.2563 210.627 63.1813 209.348 65.7363 208.705C69.815 207.68 70.9421 207.785 74.96 209.562C77.7768 210.808 80.3145 212.863 81.5596 214.905C83.7616 218.517 84.2668 225.591 82.5518 228.796C81.682 230.42 82.4483 231.915 87.2549 237.979C90.4129 241.963 95.4693 248.373 98.4893 252.223C101.51 256.073 104.344 259.651 104.786 260.174C105.228 260.691 105.59 245.353 105.59 226.085V191.045L103.088 189.904C96.53 186.916 94.2491 174.659 99.1641 168.818C106.22 160.432 119.541 163.36 122.4 173.925C124.278 180.863 121.497 187.276 115.54 189.744L112.634 190.948L112.362 231.586C112.212 253.937 112.22 272.428 112.379 272.679C112.539 272.93 118.356 267.446 125.307 260.496C136.292 249.511 137.774 247.649 136.629 246.271C134.446 243.639 134.814 234.241 137.227 231.004C143.843 222.128 158.213 222.137 163.63 231.022C166.232 235.288 166.236 243.151 163.64 247.409C160.343 252.816 153.812 255.229 146.754 253.648L142.208 252.63L112.59 282.198V333.435L120.272 332.099C139.513 328.753 156.463 319.75 170.241 305.559C194.672 280.394 201.035 245.992 188.111 208.942C182.223 192.064 179.229 186.204 156.066 146.223C141.546 121.16 130.526 95.5779 127.717 80.4109L126.825 75.6003L130.688 73.1609C132.812 71.8203 134.925 70.7238 135.386 70.7234C135.846 70.7234 137.495 74.8864 139.051 79.9734C145.648 101.548 154.881 121.193 171.279 148.55C191.157 181.713 199.287 199.201 204.291 219.558C206.493 228.52 206.926 232.618 207.001 245.223C207.114 264.238 205.007 273.855 197.363 289.223C180.029 324.074 144.097 345.723 103.59 345.723C53.1369 345.723 12.0664 313.772 1.89941 266.613C-0.968533 253.313 -0.535118 230.341 2.83984 216.723C7.85684 196.483 15.3588 179.26 32.8838 147.745C39.4657 135.908 45.6318 125.099 46.585 123.723C49.2739 119.844 67.312 87.0828 77.082 68.3328L85.8828 51.4402L87.6367 57.1091ZM138.113 2.72339C138.764 2.72368 140.824 3.73654 142.692 4.97437C152.759 11.6456 154.525 33.7156 146.351 50.7234C143.502 56.6514 135.316 64.7308 129.144 67.7068C126.423 69.0187 121.811 70.289 118.894 70.531L113.59 70.9714V66.8591C113.59 60.939 118.565 46.1691 128.371 22.9734C133.079 11.8364 137.463 2.72339 138.113 2.72339ZM127.59 0.0163574C130.936 0.214357 131.078 0.375373 130.808 3.68237C130.653 5.58551 127.322 14.3605 123.406 23.1824C114.36 43.5604 110.564 54.5847 109.866 62.5007C109.561 65.9513 108.94 69.005 108.485 69.2878C107.095 70.1468 99.9966 65.995 97.2236 62.7C93.1889 57.9049 91.2419 49.7811 91.8379 40.2263C92.4979 29.6573 97.1479 19.1853 104.753 11.1443C110.293 5.28633 113.393 3.25637 120.09 1.09839C122.29 0.390405 125.665 -0.0966121 127.59 0.0163574Z" fill="black"/>
</svg>
